<svg width="497" height="610" viewBox="0 0 497 610" fill="none" xmlns="http://www.w3.org/2000/svg">
<path d="M120.494 610H66.4936C62.4717 609.999 58.4914 609.185 54.7917 607.607C51.092 606.03 47.7491 603.721 44.9636 600.82C35.3036 565.34 49.9636 547.31 63.8236 493.82C66.7836 535.28 83.5836 574.38 120.494 610Z" fill="#192744"/>
<path d="M376.073 0H430.073C434.095 0.00130212 438.076 0.815108 441.775 2.39259C445.475 3.97008 448.818 6.27872 451.603 9.17999C461.263 44.66 446.603 62.69 432.743 116.18C429.783 74.72 412.983 35.62 376.073 0Z" fill="#192744"/>
<path d="M248.094 175.49C259.412 175.49 270.682 176.976 281.614 179.91C350.614 198.39 391.614 269.54 373.184 338.52L410.833 198C384.701 158.008 344.685 129.11 298.503 116.88C282.195 112.503 265.389 110.251 248.503 110.18H248.124C205.31 110.297 163.725 124.501 129.786 150.6C95.8471 176.699 71.4407 213.242 60.3335 254.59C87.9035 187 146.864 174.14 248.094 175.49Z" fill="#192744"/>
<path d="M248.473 434.51C237.155 434.51 225.885 433.024 214.953 430.09C145.953 411.61 104.953 340.46 123.383 271.48L85.7334 412C111.866 451.992 151.882 480.89 198.063 493.12C214.372 497.497 231.178 499.749 248.063 499.82H248.443C291.265 499.714 332.862 485.515 366.811 459.415C400.76 433.315 425.174 396.766 436.283 355.41C408.663 423 349.703 435.86 248.473 434.51Z" fill="#192744"/>
<path d="M5.98353 518.39C0.255888 506.672 -1.03709 493.277 2.34351 480.68L62.7135 255.39C86.8635 196.39 136.014 180.58 211.714 178.23C189.909 184.581 170.106 196.435 154.208 212.652C138.309 228.869 126.851 248.904 120.934 270.83L83.2835 411.37L61.3735 493.14C57.3735 508.74 53.2735 521.19 49.6835 532.14C42.6835 553.49 37.6835 568.92 39.8635 587.91L5.98353 518.39Z" fill="#3B82F6"/>
<path d="M284.823 431.77C306.627 425.419 326.431 413.565 342.329 397.348C358.228 381.131 369.686 361.096 375.603 339.17L413.283 198.63L435.193 116.86C439.193 101.26 443.293 88.8101 446.883 77.8601C453.883 56.5101 458.883 41.0801 456.703 22.1001L490.613 91.6501C496.338 103.365 497.631 116.756 494.253 129.35L433.883 354.65C409.703 413.63 360.553 429.42 284.823 431.77Z" fill="#3B82F6"/>
</svg>
